<?xml version="1.0" encoding="UTF-8"?>
<svg version="1.1" xmlns="http://www.w3.org/2000/svg" width="500" height="500">
<path d="M0 0 C1.48256952 -0.00302311 2.96513749 -0.0069134 4.44770271 -0.01159257 C8.50912352 -0.02186108 12.57045595 -0.01969365 16.63188398 -0.01541197 C21.01718238 -0.0129426 25.40245962 -0.02196164 29.78775024 -0.02944946 C38.37499768 -0.04219354 46.96221384 -0.04399044 55.54946914 -0.0416492 C62.53191294 -0.03986522 69.51434726 -0.04161741 76.49678993 -0.04587364 C77.49108266 -0.04646883 78.48537539 -0.04706402 79.5097982 -0.04767724 C81.52983143 -0.04888902 83.54986465 -0.05010315 85.56989787 -0.05131962 C104.51156906 -0.06219447 123.45322244 -0.06003319 142.39489464 -0.05393478 C159.70945054 -0.04876815 177.02395015 -0.06001446 194.33849492 -0.07903299 C212.12860151 -0.09842362 229.91868148 -0.10666509 247.70879871 -0.10290974 C257.6918678 -0.10099924 267.67488899 -0.10347037 277.65794945 -0.11762428 C286.15871266 -0.1295548 294.65939852 -0.1309244 303.16016283 -0.11883412 C307.49392447 -0.11295658 311.82754473 -0.11181466 316.16129684 -0.12383652 C320.13583976 -0.13473334 324.1101239 -0.13154717 328.0846549 -0.11757483 C329.5153239 -0.11493826 330.94601343 -0.11726143 332.37666222 -0.1253107 C344.53840379 -0.18893574 355.89221203 1.24830995 366.70845032 7.07319641 C367.38536926 7.4264801 368.06228821 7.77976379 368.75971985 8.14375305 C390.04757668 19.42115741 406.93728371 37.37008385 414.47260743 60.48490697 C418.23509559 73.81923457 417.29804271 88.17982403 417.22813928 101.92050374 C417.21234647 106.32887855 417.23149047 110.73713211 417.24594116 115.14549255 C417.26864525 123.75573737 417.25936721 132.36565541 417.2384403 140.97589334 C417.22209162 147.97809151 417.2179725 154.98020109 417.22240639 161.98241615 C417.22303706 162.98267841 417.22366774 163.98294066 417.22431752 165.0135139 C417.2256637 167.04610407 417.22704328 169.07869422 417.22845588 171.11128435 C417.24036331 190.12421945 417.21640082 209.13697626 417.17943779 228.14987079 C417.14853505 244.43565499 417.14618428 260.72123433 417.16523743 277.0070343 C417.18738696 295.96107719 417.19346093 314.91500548 417.1729148 333.86905414 C417.17075206 335.89284407 417.16860296 337.91663401 417.16646767 339.94042397 C417.1654013 340.93593983 417.16433494 341.9314557 417.16323626 342.95713871 C417.15678807 349.94599227 417.16150905 356.93478647 417.17049217 363.92363548 C417.18106542 372.44753798 417.17340648 380.97120085 417.14303639 389.49505933 C417.1279868 393.83744216 417.12064054 398.17944791 417.1352272 402.52184105 C417.14837324 406.50739003 417.13790838 410.49219677 417.10966847 414.47766099 C417.10345959 415.9087162 417.10539261 417.33983877 417.11693891 418.77086087 C417.21518316 432.04737558 414.23206234 444.87920947 407.39595032 456.38569641 C407.01728821 457.03618958 406.6386261 457.68668274 406.24848938 458.35688782 C393.79922904 478.97066307 375.36212194 492.16338582 352.45845032 499.26069641 C348.65637107 500.17176596 345.12962377 500.38766212 341.22324276 500.39212418 C339.95969871 500.39596532 338.69615465 500.39980647 337.39432138 500.40376401 C335.99454997 500.40298381 334.59477862 500.40210504 333.19500732 500.40113831 C331.70606585 500.40372269 330.21712506 500.40673606 328.72818524 500.41014171 C324.63527614 500.41820653 320.54238459 500.42000099 316.44946849 500.42073917 C312.03551124 500.42259066 307.62156308 500.43013855 303.20761108 500.43687439 C293.55451798 500.45045521 283.90142904 500.45648222 274.24832797 500.46088505 C268.21936438 500.46364825 262.1904024 500.46788579 256.1614399 500.47238922 C239.46520177 500.48458224 222.76896492 500.49488105 206.07272243 500.49826431 C204.46985105 500.49859366 204.46985105 500.49859366 202.83459843 500.49892966 C201.22791069 500.49925708 201.22791069 500.49925708 199.58876461 500.49959111 C197.41829201 500.50003458 195.2478194 500.50048114 193.0773468 500.50093079 C192.00071949 500.50115222 190.92409217 500.50137365 189.81483979 500.50160179 C172.37655674 500.50554829 154.93831552 500.52299768 137.50004863 500.54629031 C119.5913942 500.57001788 101.68276075 500.58246683 83.77409035 500.58363223 C73.72113999 500.58454827 63.6682441 500.59028264 53.61530876 500.60845184 C45.0533313 500.62387188 36.49142515 500.62896211 27.92943644 500.62071374 C23.56341183 500.6168138 19.19753074 500.61770466 14.8315239 500.63177109 C10.82854704 500.64454955 6.82582098 500.64327809 2.82284427 500.63118038 C1.38066084 500.62923017 -0.0615406 500.63227031 -1.50369877 500.64102474 C-13.38295631 500.7085257 -24.01936282 499.13800058 -34.60404968 493.57319641 C-35.28177429 493.22289368 -35.9594989 492.87259094 -36.65776062 492.51167297 C-57.84606153 481.28960938 -74.27702362 462.92190025 -81.51811218 440.00288391 C-82.99956465 434.58596994 -83.66646233 429.55839072 -83.68135738 423.94599152 C-83.68704863 422.6901068 -83.69273987 421.43422208 -83.69860357 420.14028025 C-83.69989603 418.7542716 -83.70108408 417.36826285 -83.70217896 415.98225403 C-83.70691314 414.50370065 -83.71206449 413.02514856 -83.71759659 411.54659796 C-83.73147301 407.48666235 -83.73907792 403.42673568 -83.74556959 399.36678243 C-83.75195091 395.88327142 -83.76201971 392.399775 -83.77213024 388.91627312 C-83.80542511 377.43775037 -83.82697415 365.95921873 -83.84533009 354.48066354 C-83.85012836 351.48884256 -83.85511132 348.49702194 -83.86013532 345.50520134 C-83.89111795 326.90417824 -83.91778824 308.30315196 -83.9345541 289.70211029 C-83.93850327 285.39497878 -83.94250629 281.08784733 -83.94657898 276.78071594 C-83.94758734 275.71026785 -83.9485957 274.63981975 -83.94963462 273.53693384 C-83.96661449 256.22504888 -84.00769413 238.91330755 -84.05860197 221.60149258 C-84.11050602 203.80350156 -84.13951345 186.00558414 -84.14675099 168.2075181 C-84.15139795 158.22460675 -84.16598751 148.2419303 -84.20649529 138.25909424 C-84.24098011 129.75044329 -84.25466068 121.24206967 -84.24207114 112.7333529 C-84.23628654 108.40034054 -84.2398071 104.06791326 -84.27024078 99.73499107 C-84.58079036 52.96230956 -84.58079036 52.96230956 -70.76811218 38.50288391 C-70.03334656 37.76296204 -69.29858093 37.02304016 -68.54154968 36.26069641 C-67.33243291 34.71486358 -66.14377059 33.15274942 -64.97904968 31.57319641 C-48.75266685 10.83132695 -26.17510533 -0.07565799 0 0 Z M154.28657532 148.85835266 C153.15302109 149.26273811 153.15302109 149.26273811 151.99656677 149.67529297 C149.56286018 150.54637715 147.13584448 151.43469231 144.70845032 152.32319641 C143.02222703 152.92962833 141.33553776 153.53476609 139.64839172 154.1386261 C136.35986887 155.31729141 133.07358306 156.5018321 129.789505 157.69282532 C124.81485442 159.49617301 119.82859142 161.2649373 114.83345032 163.01069641 C114.10045715 163.26834778 113.36746399 163.52599915 112.61225891 163.79145813 C104.41668777 166.65625803 96.16791431 169.36595795 87.91694641 172.06636047 C82.23533954 173.93964083 76.6622704 175.93867267 71.12641907 178.20429993 C66.13645067 180.18010458 61.05938432 181.91792277 55.99531555 183.69306946 C44.78325461 187.62637191 33.60198732 191.63711721 22.45845032 195.76069641 C21.35058167 196.16949036 20.24271301 196.5782843 19.10127258 196.99946594 C8.61911013 200.01591786 8.61911013 200.01591786 0.45845032 206.26069641 C0.58519379 209.30253973 0.77605684 211.40473418 2.70463562 213.82385254 C4.83916848 215.57260653 6.79268258 216.32922259 9.39448547 217.25019836 C10.90348923 217.79140068 10.90348923 217.79140068 12.44297791 218.34353638 C13.53347443 218.724832 14.62397095 219.10612762 15.74751282 219.49897766 C16.8793399 219.90222763 18.01116699 220.3054776 19.17729187 220.72094727 C22.80988895 222.01305054 26.44655311 223.29325317 30.08345032 224.57319641 C32.47955991 225.42332962 34.87539646 226.27423285 37.27095032 227.12593079 C45.74685424 230.13596179 54.22783728 233.13143087 62.71748352 236.10249329 C63.49332794 236.37458115 64.26917236 236.64666901 65.06852722 236.92700195 C66.44437512 237.40914058 67.82079583 237.88965015 69.19798279 238.36795044 C73.3284862 239.81530009 77.36392942 241.43462611 81.39595032 243.13569641 C87.73574319 245.7526599 94.1992678 247.74661829 100.77095032 249.69819641 C115.11933876 253.96735488 129.15702453 259.05870038 143.22724915 264.15693665 C144.55926865 264.63865074 144.55926865 264.63865074 145.91819763 265.13009644 C147.58833144 265.73478917 149.25764261 266.34176098 150.9259491 266.95147705 C166.62757291 272.64501476 176.4324295 268.79069379 191.70845032 263.44819641 C193.39954726 262.86200785 195.09087704 262.27649061 196.78242493 261.69160461 C200.28513634 260.48006111 203.78683866 259.26565819 207.28804016 258.04975891 C212.12634015 256.37228607 216.9722977 254.71816525 221.82173157 253.07319641 C239.66433708 247.01653541 257.45424156 240.82211415 275.20845032 234.51069641 C276.71425156 233.97586136 276.71425156 233.97586136 278.25047302 233.43022156 C281.08605106 232.42233847 283.92086513 231.41234344 286.75532532 230.40132141 C287.60861923 230.09779251 288.46191315 229.79426361 289.34106445 229.48153687 C293.46716875 228.03367275 293.46716875 228.03367275 297.45845032 226.26069641 C297.44956787 227.30417236 297.44068542 228.34764832 297.43153381 229.42274475 C297.35048149 239.25182222 297.29050104 249.08083198 297.25120163 258.91016769 C297.23031818 263.96367561 297.20198661 269.01691396 297.1566925 274.07026672 C297.11326192 278.94617109 297.08931892 283.82181601 297.07894135 288.69789886 C297.07154497 290.55908035 297.05710166 292.42024749 297.03553009 294.28131866 C297.00653288 296.88641145 297.00249272 299.49042939 297.00434875 302.09565735 C296.9827771 303.25227875 296.9827771 303.25227875 296.96076965 304.43226624 C296.9879655 307.95517401 297.17809666 309.89051868 299.33448792 312.73780823 C301.89887242 314.57648054 303.32441735 314.79891633 306.45845032 314.76069641 C307.30407532 314.77100891 308.14970032 314.78132141 309.02095032 314.79194641 C312.39578859 314.05640474 313.3890509 313.03742284 315.45845032 310.26069641 C315.83233773 307.20151839 315.96508093 304.50864778 315.91255188 301.45307922 C315.91313599 300.5649202 315.91372009 299.67676117 315.9143219 298.76168823 C315.91153718 295.82866714 315.88042682 292.89666477 315.84907532 289.96382141 C315.84161431 287.92930151 315.83592072 285.89477441 315.83192444 283.86024475 C315.81665713 278.50725946 315.7773656 273.1547088 315.73310852 267.80189514 C315.69217963 262.33900329 315.6739185 256.87604117 315.65376282 251.41304016 C315.61087263 240.69540136 315.5426078 229.97808504 315.45845032 219.26069641 C316.20900696 219.07096252 316.9595636 218.88122864 317.73286438 218.68574524 C318.71996399 218.42817444 319.7070636 218.17060364 320.72407532 217.90522766 C321.70150696 217.65361877 322.6789386 217.40200989 323.68598938 217.14277649 C327.7373416 215.85380717 329.7224517 214.52869476 332.45845032 211.26069641 C332.52134962 208.11573124 332.23009679 206.31768504 330.36445618 203.76216125 C327.52284136 201.52366617 324.28005857 200.52813468 320.89985657 199.36225891 C320.13611725 199.0910321 319.37237793 198.8198053 318.585495 198.5403595 C316.06665937 197.6476781 313.54384387 196.76683656 311.02095032 195.88569641 C309.26158438 195.26407876 307.502555 194.64150777 305.74385071 194.01802063 C302.11239586 192.73114976 298.47968802 191.44791025 294.84614563 190.16694641 C287.43976772 187.55156403 280.05313792 184.88191847 272.66777039 182.207901 C270.40355078 181.38844713 268.13873345 180.57066651 265.87373352 179.75337219 C259.53818886 177.46646684 253.2054365 175.17296318 246.88423157 172.84663391 C245.90784729 172.4881134 244.93146301 172.1295929 243.92549133 171.76020813 C242.23329239 171.13770274 240.54217153 170.51224879 238.85273743 169.88227844 C233.959761 168.08276729 229.01885072 166.48828789 224.03657532 164.95600891 C215.57571726 162.3485375 207.22772179 159.44892988 198.88276672 156.49409485 C196.43374373 155.62694834 193.98333894 154.76380145 191.53266907 153.90132141 C189.94534959 153.34165211 188.35810715 152.78176428 186.77095032 152.22163391 C186.05310364 151.96844391 185.33525696 151.71525391 184.59565735 151.45439148 C183.90713684 151.21048676 183.21861633 150.96658203 182.50923157 150.71528625 C181.83585754 150.47896484 181.16248352 150.24264343 180.46870422 149.99916077 C179.11482332 149.50181424 177.77284877 148.97093627 176.44429016 148.40943909 C168.43584489 145.07965546 162.27428663 145.88638148 154.28657532 148.85835266 Z M67.45845032 256.26069641 C67.41206248 264.38850804 67.37654842 272.51626414 67.35482597 280.64417553 C67.34439908 284.41849641 67.33025995 288.19272657 67.30757141 291.96699524 C67.28580388 295.61095379 67.27387346 299.2548252 67.26869583 302.89884377 C67.26500708 304.28747746 67.25780386 305.6761065 67.2469902 307.06470299 C67.23242417 309.01304325 67.23163296 310.96147163 67.23139954 312.90986633 C67.22695831 314.01795151 67.22251709 315.12603668 67.21794128 316.2677002 C67.63691521 321.48158911 69.69633339 325.4662212 73.19282532 329.37007141 C82.63567812 337.24996926 95.9636351 341.30491018 107.45845032 345.26069641 C108.08654602 345.48354309 108.71464172 345.70638977 109.36177063 345.93598938 C114.01111691 347.57445657 118.69421252 348.99496405 123.45845032 350.26069641 C124.20642883 350.45969543 124.95440735 350.65869446 125.72505188 350.86372375 C138.37489539 354.05098313 150.85822033 354.63218851 163.83345032 354.63569641 C164.58863953 354.63759979 165.34382874 354.63950317 166.12190247 354.64146423 C193.73664477 354.63358374 221.46947261 349.23914254 246.45845032 337.26069641 C247.47809875 336.77729797 248.49774719 336.29389954 249.54829407 335.79585266 C257.26537087 331.89070105 262.62589757 327.6129136 265.45845032 319.26069641 C265.74579204 316.21029156 265.74579204 316.21029156 265.6855011 312.90986633 C265.68535004 311.64893661 265.68519897 310.3880069 265.68504333 309.08886719 C265.67483168 307.72296489 265.66439972 306.35706422 265.65376282 304.99116516 C265.65002973 303.58583783 265.64718415 302.18050788 265.64518738 300.775177 C265.63757421 297.08769973 265.61794584 293.40038159 265.59577942 289.71296692 C265.57527091 285.94569552 265.56617498 282.17839825 265.55610657 278.41108704 C265.53469757 271.02755118 265.50058986 263.64414615 265.45845032 256.26069641 C257.01509596 258.4686621 257.01509596 258.4686621 248.78657532 261.35444641 C247.80801575 261.73955383 246.82945618 262.12466125 245.82124329 262.5214386 C244.79402161 262.93039368 243.76679993 263.33934875 242.70845032 263.76069641 C231.32920541 268.21799667 219.86503971 272.36582849 208.33589172 276.41474915 C201.55033042 278.79938016 194.7950579 281.23755681 188.08345032 283.82319641 C163.56963226 293.03911718 143.45308786 283.38596839 120.14595032 274.88569641 C118.115466 274.14840146 116.0848675 273.41142087 114.05415344 272.67475891 C98.60618053 267.06511189 98.60618053 267.06511189 91.09761047 264.26753235 C90.25253433 263.95335358 89.40745819 263.6391748 88.53677368 263.31547546 C86.98589859 262.73793125 85.43597504 262.15782075 83.8873291 261.57432556 C78.47860371 259.5604801 73.001344 257.86613877 67.45845032 256.26069641 Z " fill="#174883" transform="translate(83.54154968261719,-0.2606964111328125)"/>
<path d="M0 0 C0.66 0 1.32 0 2 0 C2.61875 1.3921875 2.61875 1.3921875 3.25 2.8125 C4.97104052 5.94725238 6.14240967 7.03393062 9 9 C1.88610478 17.6309795 1.88610478 17.6309795 -3 20 C-3.391875 19.21625 -3.78375 18.4325 -4.1875 17.625 C-6.24274669 14.64843582 -7.59679258 14.01176437 -11 13 C-10.67 12.01 -10.34 11.02 -10 10 C-9.030625 9.690625 -8.06125 9.38125 -7.0625 9.0625 C-3.94485373 8.32642136 -3.94485373 8.32642136 -2.75 6.125 C-2.5025 5.42375 -2.255 4.7225 -2 4 C-1.33333333 2.66666667 -0.66666667 1.33333333 0 0 Z " fill="#829BBA" transform="translate(472,461)"/>
<path d="M0 0 C4.29 0.33 8.58 0.66 13 1 C9.63855647 3.24096235 6.22976649 4.44403094 2.4453125 5.75 C1.70675018 6.0087793 0.96818787 6.26755859 0.20724487 6.53417969 C-2.1521393 7.36008713 -4.51346352 8.18026927 -6.875 9 C-9.22900888 9.82079622 -11.58259459 10.64278502 -13.93582153 11.46582031 C-15.39888627 11.97712788 -16.862466 12.48696493 -18.32662964 12.99511719 C-21.19955626 13.99600163 -24.03887428 15.01633721 -26.84423828 16.1953125 C-29.34871703 17.13016663 -30.52949385 16.91500228 -33 16 C-32.0409375 15.38125 -32.0409375 15.38125 -31.0625 14.75 C-28.79009069 12.82189513 -28.39803561 11.88575819 -28 9 C-27.071875 9.226875 -26.14375 9.45375 -25.1875 9.6875 C-22.03173152 10.36319983 -22.03173152 10.36319983 -20.125 8.5625 C-19.75375 8.046875 -19.3825 7.53125 -19 7 C-18.01 7.66 -17.02 8.32 -16 9 C-15.01 9 -14.02 9 -13 9 C-13 8.34 -13 7.68 -13 7 C-12.22914063 6.82984375 -11.45828125 6.6596875 -10.6640625 6.484375 C-9.66117188 6.24203125 -8.65828125 5.9996875 -7.625 5.75 C-6.62726563 5.51796875 -5.62953125 5.2859375 -4.6015625 5.046875 C-1.51754851 4.13978999 -1.51754851 4.13978999 0 0 Z " fill="#537098" transform="translate(233,145)"/>
<path d="M0 0 C0.00586624 1.04347595 0.01173248 2.0869519 0.01777649 3.16204834 C0.07496622 12.99133873 0.14770815 22.82040708 0.23571491 32.64947128 C0.28046035 37.70282144 0.31970727 42.75609019 0.34643555 47.80957031 C0.37242688 52.68561627 0.41279968 57.56134968 0.46318626 62.43720245 C0.47988323 64.29830287 0.49137985 66.15945738 0.49761391 68.02062225 C0.50722429 70.62573587 0.53524628 73.23004475 0.56762695 75.83496094 C0.56619186 76.60604187 0.56475677 77.3771228 0.5632782 78.17156982 C0.63735442 82.37981325 0.98472008 84.95051694 4 88 C2.35 87.67 0.7 87.34 -1 87 C-1 58.95 -1 30.9 -1 2 C-2.32 1.67 -3.64 1.34 -5 1 C-2 0 -2 0 0 0 Z " fill="#3C5778" transform="translate(381,226)"/>
<path d="M0 0 C0 0.66 0 1.32 0 2 C-0.99 2 -1.98 2 -3 2 C-3.33 3.98 -3.66 5.96 -4 8 C-4.66 8 -5.32 8 -6 8 C-6 8.66 -6 9.32 -6 10 C-6.85078125 9.48953125 -6.85078125 9.48953125 -7.71875 8.96875 C-10.38456438 7.83669184 -11.68273689 7.99829561 -14.5 8.5 C-18.08400989 9.13824834 -19.8581738 8.88509572 -23 7 C-21.81921875 6.66226562 -20.6384375 6.32453125 -19.421875 5.9765625 C-17.86452471 5.52624434 -16.30723627 5.07571229 -14.75 4.625 C-13.97269531 4.40328125 -13.19539063 4.1815625 -12.39453125 3.953125 C-11.26337891 3.62441406 -11.26337891 3.62441406 -10.109375 3.2890625 C-9.41811523 3.09006348 -8.72685547 2.89106445 -8.01464844 2.68603516 C-5.93930744 2.03196296 -5.93930744 2.03196296 -3.86816406 0.91943359 C-2 0 -2 0 0 0 Z " fill="#466997" transform="translate(322,340)"/>
<path d="M0 0 C5.91492272 0.45224761 11.35199888 1.1582605 17 3 C17 3.66 17 4.32 17 5 C17.928125 5.12375 18.85625 5.2475 19.8125 5.375 C23 6 23 6 26 8 C27.155 8.309375 28.31 8.61875 29.5 8.9375 C32.72756225 9.91729568 33.99732631 10.40830463 36 13 C31.73946122 12.28457118 27.78055292 10.95803097 23.73046875 9.49609375 C23.04946609 9.2533522 22.36846344 9.01061066 21.66682434 8.76051331 C19.50587596 7.98941411 17.34668034 7.21353439 15.1875 6.4375 C13.71691026 5.9117921 12.24620827 5.38639808 10.77539062 4.86132812 C7.18228418 3.57784869 3.59074122 2.29008097 0 1 C0 0.67 0 0.34 0 0 Z " fill="#486285" transform="translate(359,183)"/>
<path d="M0 0 C1.89611434 0.14213297 3.79188394 0.28886907 5.6875 0.4375 C6.74324219 0.51871094 7.79898438 0.59992188 8.88671875 0.68359375 C12 1 12 1 14.171875 1.5 C17.89581545 2.15837621 21.59259402 2.23366796 25.36328125 2.31640625 C26.55125557 2.3475779 26.55125557 2.3475779 27.76322937 2.37937927 C30.27956928 2.44447804 32.79600872 2.50357423 35.3125 2.5625 C37.02409861 2.605723 38.73568735 2.64933848 40.44726562 2.69335938 C44.63140984 2.80011847 48.81565362 2.90149635 53 3 C53 3.33 53 3.66 53 4 C46.89854559 4.07455252 40.79736054 4.12879183 34.69555664 4.16479492 C32.62291846 4.17981521 30.55031171 4.20023747 28.4777832 4.22631836 C25.48641164 4.26300024 22.4954629 4.27979435 19.50390625 4.29296875 C18.58791153 4.30845261 17.67191681 4.32393646 16.72816467 4.33988953 C10.63259241 4.34145867 5.65187117 3.28252065 0 1 C0 0.67 0 0.34 0 0 Z " fill="#6B86A4" transform="translate(212,351)"/>
<path d="M0 0 C0.99 0 1.98 0 3 0 C3 0.66 3 1.32 3 2 C2.34 2 1.68 2 1 2 C1 22.13 1 42.26 1 63 C0.67 63 0.34 63 0 63 C-0.15360375 54.93357434 -0.30178536 46.86707541 -0.4429636 38.80042362 C-0.50868398 35.05512587 -0.57630178 31.30988205 -0.64819336 27.56469727 C-0.71744888 23.95325437 -0.781802 20.34175491 -0.84269524 16.73016167 C-0.86684974 15.3493677 -0.89279813 13.96860395 -0.92053413 12.58787727 C-0.95895431 10.66031648 -0.99051753 8.73262264 -1.02172852 6.80493164 C-1.04171402 5.70572891 -1.06169952 4.60652618 -1.08229065 3.47401428 C-1 1 -1 1 0 0 Z " fill="#17406D" transform="translate(149,254)"/>
<path d="M0 0 C6.40140935 0.46555704 11.26769829 2.14711836 17 5 C17 5.66 17 6.32 17 7 C17.61488281 7.02578125 18.22976562 7.0515625 18.86328125 7.078125 C19.67152344 7.13484375 20.47976562 7.1915625 21.3125 7.25 C22.11300781 7.29640625 22.91351563 7.3428125 23.73828125 7.390625 C26.66467743 8.17908407 27.44016602 9.4759968 29 12 C19.12550449 9.24809142 9.58969974 5.59872163 0 2 C0 1.34 0 0.68 0 0 Z " fill="#496685" transform="translate(197,271)"/>
<path d="M0 0 C1.32 0.66 2.64 1.32 4 2 C4 2.99 4 3.98 4 5 C4.33 5.99 4.66 6.98 5 8 C6.1577506 11.47325181 6.06866652 14.36067448 6 18 C5.01 18 4.02 18 3 18 C2.29546997 16.13133238 1.61208312 14.25468584 0.9375 12.375 C0.55464844 11.33085937 0.17179688 10.28671875 -0.22265625 9.2109375 C-1.06577837 5.72829236 -0.82495611 3.45547652 0 0 Z " fill="#486A96" transform="translate(2,430)"/>
<path d="M0 0 C-3.27566335 3.27566335 -7.68056538 4.19069592 -12 5.6875 C-12.928125 6.02072266 -13.85625 6.35394531 -14.8125 6.69726562 C-15.699375 7.00728516 -16.58625 7.31730469 -17.5 7.63671875 C-18.72203125 8.06537231 -18.72203125 8.06537231 -19.96875 8.50268555 C-22 9 -22 9 -24 8 C-24.33 7.34 -24.66 6.68 -25 6 C-22.46569277 4.47941566 -20.66028906 3.95513252 -17.6875 3.5625 C-13.93617346 3.15710033 -13.93617346 3.15710033 -10.5 1.4375 C-6.72034652 -0.11485768 -4.04306938 -0.24753486 0 0 Z " fill="#5E7B99" transform="translate(121,190)"/>
<path d="M0 0 C0 0.66 0 1.32 0 2 C-3.12040043 3.19984601 -6.24695531 4.38274177 -9.375 5.5625 C-10.70917969 6.07586914 -10.70917969 6.07586914 -12.0703125 6.59960938 C-12.92109375 6.91865234 -13.771875 7.23769531 -14.6484375 7.56640625 C-15.43395996 7.86490479 -16.21948242 8.16340332 -17.02880859 8.47094727 C-19 9 -19 9 -21 8 C-20.67 7.01 -20.34 6.02 -20 5 C-17.1640625 3.8671875 -17.1640625 3.8671875 -13.625 2.875 C-12.46226562 2.54242188 -11.29953125 2.20984375 -10.1015625 1.8671875 C-8.56628906 1.43792969 -8.56628906 1.43792969 -7 1 C-4 0 -4 0 0 0 Z " fill="#416284" transform="translate(331,261)"/>
<path d="M0 0 C0.66 0 1.32 0 2 0 C2.33 2.31 2.66 4.62 3 7 C2.01 7.66 1.02 8.32 0 9 C-0.99 8.67 -1.98 8.34 -3 8 C-3.33 8.66 -3.66 9.32 -4 10 C-4.99 10.495 -4.99 10.495 -6 11 C-6.33 11.99 -6.66 12.98 -7 14 C-8.32 13.67 -9.64 13.34 -11 13 C-10.67 12.01 -10.34 11.02 -10 10 C-9.030625 9.690625 -8.06125 9.38125 -7.0625 9.0625 C-3.94485373 8.32642136 -3.94485373 8.32642136 -2.75 6.125 C-2.5025 5.42375 -2.255 4.7225 -2 4 C-1.33333333 2.66666667 -0.66666667 1.33333333 0 0 Z " fill="#7A96BF" transform="translate(472,461)"/>
<path d="M0 0 C0.66 0.99 1.32 1.98 2 3 C0.97012884 7.41808634 -0.9840731 10.90447401 -3.4375 14.6875 C-4.03433594 15.61949219 -4.63117188 16.55148437 -5.24609375 17.51171875 C-6.71189021 19.59125627 -8.13056297 21.29063709 -10 23 C-10.66 21.68 -11.32 20.36 -12 19 C-11.01 18.67 -10.02 18.34 -9 18 C-8.67 17.01 -8.34 16.02 -8 15 C-7.34 15.33 -6.68 15.66 -6 16 C-6 14.68 -6 13.36 -6 12 C-5.34 12 -4.68 12 -4 12 C-3.67 10.68 -3.34 9.36 -3 8 C-2.34 8 -1.68 8 -1 8 C-0.67 5.36 -0.34 2.72 0 0 Z " fill="#4E6E94" transform="translate(492,445)"/>
<path d="M0 0 C4.84414612 -0.23848104 8.74424088 0.60203498 13.375 2 C14.62023437 2.37125 15.86546875 2.7425 17.1484375 3.125 C18.08945312 3.41375 19.03046875 3.7025 20 4 C20 4.66 20 5.32 20 6 C22.97 6.495 22.97 6.495 26 7 C26 7.66 26 8.32 26 9 C16.841922 7.72315259 8.54555426 4.37157104 0 1 C0 0.67 0 0.34 0 0 Z " fill="#59718E" transform="translate(288,158)"/>
<path d="M0 0 C7.44539885 -0.46533743 13.72002072 0.13001813 19.5 5.1875 C19.995 5.785625 20.49 6.38375 21 7 C19 8 19 8 17.02880859 7.47094727 C15.8505249 7.02319946 15.8505249 7.02319946 14.6484375 6.56640625 C13.79765625 6.24736328 12.946875 5.92832031 12.0703125 5.59960938 C11.18085938 5.25736328 10.29140625 4.91511719 9.375 4.5625 C8.4778125 4.22412109 7.580625 3.88574219 6.65625 3.53710938 C4.43483339 2.69817012 2.21634729 1.8522225 0 1 C0 0.67 0 0.34 0 0 Z " fill="#48668A" transform="translate(172,263)"/>
<path d="M0 0 C2 0.33333333 4 0.66666667 6 1 C6 1.66 6 2.32 6 3 C9.3 3.33 12.6 3.66 16 4 C16 4.33 16 4.66 16 5 C6.54393261 5.55714963 -1.1149093 4.25738186 -10 1 C-6.17989412 -1.1395872 -4.29783761 -0.94552427 0 0 Z " fill="#849FBB" transform="translate(240,284)"/>
<path d="M0 0 C13.81776765 -0.55353075 13.81776765 -0.55353075 19 3 C19 3.66 19 4.32 19 5 C14.28347435 5.22937511 10.6025727 4.46206455 6.125 3 C4.39636719 2.443125 4.39636719 2.443125 2.6328125 1.875 C1.76398438 1.58625 0.89515625 1.2975 0 1 C0 0.67 0 0.34 0 0 Z " fill="#264977" transform="translate(156,258)"/>
<path d="M0 0 C0 0.66 0 1.32 0 2 C-6.35534012 4.26207021 -12.68538274 5.91752186 -19.27734375 7.3515625 C-21.94531617 7.87773246 -21.94531617 7.87773246 -24 9 C-24.66 8.34 -25.32 7.68 -26 7 C-20.29726429 4.69697212 -14.61926196 3.07321732 -8.63671875 1.6484375 C-1.93373494 0 -1.93373494 0 0 0 Z " fill="#254771" transform="translate(352,238)"/>
<path d="M0 0 C0 4.07434009 -1.76293677 7.0960044 -3.5 10.6875 C-3.83386719 11.38939453 -4.16773438 12.09128906 -4.51171875 12.81445312 C-5.33599411 14.54543137 -6.16732406 16.2730471 -7 18 C-7.66 18 -8.32 18 -9 18 C-8.3828793 10.44027148 -5.78675148 5.16674239 0 0 Z " fill="#667B93" transform="translate(13,39)"/>
<path d="M0 0 C0.845625 0.25265625 1.69125 0.5053125 2.5625 0.765625 C5.08146956 1.78290117 6.91149178 3.02891452 9 4.75 C8.01 5.08 7.02 5.41 6 5.75 C5.401875 5.440625 4.80375 5.13125 4.1875 4.8125 C1.95556001 3.53154802 1.95556001 3.53154802 -1 3.75 C-4.04001945 3.75 -5.45443536 3.31650132 -8 1.75 C-8.33 2.41 -8.66 3.07 -9 3.75 C-9 2.43 -9 1.11 -9 -0.25 C-5.56501703 -1.42679972 -3.43717527 -1.06887767 0 0 Z " fill="#55769E" transform="translate(442,3.25)"/>
<path d="M0 0 C4.455 0.99 4.455 0.99 9 2 C6.93083047 5.1037543 6.41805705 5.53219022 3.125 6.75 C2.10792969 7.14445313 2.10792969 7.14445313 1.0703125 7.546875 C-1.29899512 8.06544044 -2.72122356 7.75618591 -5 7 C-4.360625 6.5875 -3.72125 6.175 -3.0625 5.75 C-0.58535424 3.99276136 -0.58535424 3.99276136 0 0 Z " fill="#466790" transform="translate(205,154)"/>
<path d="M0 0 C8.74218041 1.56110365 16.75983375 4.78481857 25 8 C21.31748062 9.22750646 19.65397023 8.60943561 15.9375 7.625 C14.87402344 7.34914062 13.81054688 7.07328125 12.71484375 6.7890625 C10 6 10 6 8 5 C8 4.34 8 3.68 8 3 C6.02 3 4.04 3 2 3 C2 2.34 2 1.68 2 1 C1.34 0.67 0.68 0.34 0 0 Z " fill="#708AA4" transform="translate(96,218)"/>
<path d="M0 0 C0 0.33 0 0.66 0 1 C-1.65 1 -3.3 1 -5 1 C-5 1.66 -5 2.32 -5 3 C-5.99 3.33 -6.98 3.66 -8 4 C-8.33 4.99 -8.66 5.98 -9 7 C-10.65 6.67 -12.3 6.34 -14 6 C-13.34 5.67 -12.68 5.34 -12 5 C-12 4.34 -12 3.68 -12 3 C-15.3 3 -18.6 3 -22 3 C-22 2.67 -22 2.34 -22 2 C-19.45887768 1.66198848 -16.91723254 1.32946621 -14.375 1 C-13.66214844 0.90460938 -12.94929688 0.80921875 -12.21484375 0.7109375 C-8.11178391 0.18393899 -4.14754258 -0.10466984 0 0 Z " fill="#5B7A9C" transform="translate(287,351)"/>
<path d="M0 0 C6.83981276 0.51621228 12.63876684 2.48590969 19 5 C15.25 6.125 15.25 6.125 13 5 C10.17786782 4.8040186 7.35807503 4.68208444 4.53125 4.57421875 C2 4 2 4 0.65625 1.95703125 C0.4396875 1.31121094 0.223125 0.66539062 0 0 Z " fill="#264670" transform="translate(163,243)"/>
<path d="M0 0 C1.19625 0.268125 2.3925 0.53625 3.625 0.8125 C10.07498936 2.24697763 16.53792955 3.62117985 23 5 C22.67 5.99 22.34 6.98 22 8 C14.49068545 6.0827282 7.24196241 3.75950985 0 1 C0 0.67 0 0.34 0 0 Z " fill="#7891AF" transform="translate(257,147)"/>
<path d="M0 0 C5.92863717 1.16651426 11.38798394 2.75519358 17 5 C17 5.66 17 6.32 17 7 C11.54520815 6.43179252 7.08940744 5.05362055 2 3 C2 2.34 2 1.68 2 1 C1.34 0.67 0.68 0.34 0 0 Z " fill="#68849F" transform="translate(179,341)"/>
<path d="M0 0 C0.33 0 0.66 0 1 0 C1.125 7.75 1.125 7.75 0 10 C-3.93673644 8.68775452 -6.22719294 7.08089673 -9 4 C-6.69 4.33 -4.38 4.66 -2 5 C-1.855625 4.360625 -1.71125 3.72125 -1.5625 3.0625 C-1 1 -1 1 0 0 Z " fill="#3B618C" transform="translate(46,481)"/>
<path d="M0 0 C0 3 0 3 -1.5 4.6875 C-1.995 5.120625 -2.49 5.55375 -3 6 C-3.78375 5.505 -4.5675 5.01 -5.375 4.5 C-7.78552327 2.83462035 -7.78552327 2.83462035 -10 3 C-10 2.34 -10 1.68 -10 1 C-3.71428571 -1.42857143 -3.71428571 -1.42857143 0 0 Z " fill="#1A4477" transform="translate(415,217)"/>
<path d="M0 0 C2.98619537 2.55959603 4.48551562 5.3940848 6 9 C6.1875 11.875 6.1875 11.875 6 14 C5.34 13.67 4.68 13.34 4 13 C4 12.34 4 11.68 4 11 C3.34 11 2.68 11 2 11 C0.19769832 7.17010894 -0.19622241 4.21878192 0 0 Z " fill="#183F6B" transform="translate(489,46)"/>
<path d="M0 0 C0.99 0 1.98 0 3 0 C2.48914188 6.43681228 1.27057103 11.95942424 -1 18 C-2 15 -2 15 -1 12 C-0.77674186 9.94106379 -0.59294241 7.87766347 -0.4375 5.8125 C-0.35371094 4.72582031 -0.26992188 3.63914062 -0.18359375 2.51953125 C-0.12300781 1.68808594 -0.06242187 0.85664063 0 0 Z " fill="#6A84A3" transform="translate(496,430)"/>
<path d="M0 0 C5.56246192 0.12641959 8.09892558 2.37757375 12 6 C8.08428299 7.305239 6.96107003 6.32239848 3.3125 4.5625 C2.31863281 4.08941406 1.32476562 3.61632812 0.30078125 3.12890625 C-0.45847656 2.75636719 -1.21773437 2.38382812 -2 2 C-1.34 1.34 -0.68 0.68 0 0 Z " fill="#6584A4" transform="translate(48,490)"/>
<path d="M0 0 C-1.375 1.5 -1.375 1.5 -3 3 C-3.66 3 -4.32 3 -5 3 C-5 3.99 -5 4.98 -5 6 C-6.32 6.33 -7.64 6.66 -9 7 C-9 6.34 -9 5.68 -9 5 C-9.99 4.67 -10.98 4.34 -12 4 C-10.56988027 3.13353333 -9.13059381 2.28218171 -7.6875 1.4375 C-6.48673828 0.72400391 -6.48673828 0.72400391 -5.26171875 -0.00390625 C-3 -1 -3 -1 0 0 Z " fill="#58799A" transform="translate(53,7)"/>
<path d="M0 0 C0 4.02580163 -1.07721703 6.47489789 -3 10 C-6.1875 11.4375 -6.1875 11.4375 -9 12 C-8.06692579 10.55962331 -7.12834923 9.12281015 -6.1875 7.6875 C-5.66542969 6.88699219 -5.14335937 6.08648437 -4.60546875 5.26171875 C-3.19610151 3.2762598 -1.77903343 1.6508148 0 0 Z " fill="#567197" transform="translate(23,26)"/>
<path d="M0 0 C0 0.66 0 1.32 0 2 C-1.76641683 2.6987693 -3.53832664 3.38366583 -5.3125 4.0625 C-6.79169922 4.63677734 -6.79169922 4.63677734 -8.30078125 5.22265625 C-11 6 -11 6 -14 5 C-9.10663008 1.62901183 -5.97562839 -0.16150347 0 0 Z " fill="#6F84A2" transform="translate(287,277)"/>
<path d="M0 0 C-2.26708325 0.8655047 -4.53775079 1.71759315 -6.8125 2.5625 C-7.77639648 2.9327832 -7.77639648 2.9327832 -8.75976562 3.31054688 C-13.66015625 5.11328125 -13.66015625 5.11328125 -17 4 C-16 2 -16 2 -13.41796875 1.11328125 C-12.35191406 0.84902344 -11.28585938 0.58476562 -10.1875 0.3125 C-9.12917969 0.04050781 -8.07085937 -0.23148438 -6.98046875 -0.51171875 C-4.16731706 -0.97258895 -2.64034337 -0.9525694 0 0 Z " fill="#365479" transform="translate(182,169)"/>
<path d="M0 0 C6.19887485 -0.37952295 10.4477112 0.1647887 16 3 C12.89252306 4.55373847 10.25773473 3.58528628 6.875 3.0625 C5.59367188 2.86785156 4.31234375 2.67320312 2.9921875 2.47265625 C2.00476563 2.31667969 1.01734375 2.16070312 0 2 C0 1.34 0 0.68 0 0 Z " fill="#406184" transform="translate(246,144)"/>
<path d="M0 0 C-2.11493137 2.11493137 -3.06411317 2.50750159 -5.875 3.25 C-6.89207031 3.53617187 -6.89207031 3.53617187 -7.9296875 3.828125 C-10.50951438 4.04229931 -11.81308988 3.31410743 -14 2 C-4.58997722 -1.62870159 -4.58997722 -1.62870159 0 0 Z " fill="#496684" transform="translate(297,274)"/>
<path d="M0 0 C4.84688192 0.78175515 9.3766367 2.39844278 14 4 C11.7561366 5.38354806 10.57789722 6.09922386 7.9296875 5.64453125 C7.25164062 5.36996094 6.57359375 5.09539062 5.875 4.8125 C5.19179687 4.55082031 4.50859375 4.28914062 3.8046875 4.01953125 C2 3 2 3 0 0 Z " fill="#4C6789" transform="translate(127,229)"/>
<path d="M0 0 C0.99 0.33 1.98 0.66 3 1 C2.855625 1.70125 2.71125 2.4025 2.5625 3.125 C1.98521625 6.07556141 1.48304859 9.03270151 1 12 C0.67 11.34 0.34 10.68 0 10 C-0.66 10 -1.32 10 -2 10 C-1.34 6.7 -0.68 3.4 0 0 Z " fill="#637D9A" transform="translate(3,57)"/>
<path d="M0 0 C0.66 0 1.32 0 2 0 C2 0.99 2 1.98 2 3 C0.25 4.60546875 0.25 4.60546875 -2 6.1875 C-2.7425 6.71730469 -3.485 7.24710937 -4.25 7.79296875 C-4.8275 8.19128906 -5.405 8.58960938 -6 9 C-6.66 8.67 -7.32 8.34 -8 8 C-7.34 6.68 -6.68 5.36 -6 4 C-4.68 4 -3.36 4 -2 4 C-2 3.34 -2 2.68 -2 2 C-1.34 2 -0.68 2 0 2 C0 1.34 0 0.68 0 0 Z " fill="#4F6C8E" transform="translate(467,479)"/>
<path d="M0 0 C0.66 0.99 1.32 1.98 2 3 C1.34 3 0.68 3 0 3 C-0.33 3.66 -0.66 4.32 -1 5 C-1.99 5.495 -1.99 5.495 -3 6 C-3.33 6.99 -3.66 7.98 -4 9 C-5.32 8.67 -6.64 8.34 -8 8 C-7.67 7.01 -7.34 6.02 -7 5 C-5 4.33333333 -3 3.66666667 -1 3 C-0.67 2.01 -0.34 1.02 0 0 Z " fill="#698AB5" transform="translate(469,466)"/>
<path d="M0 0 C0.66 0.99 1.32 1.98 2 3 C1.00631858 7.57093452 -0.93022144 10.52091763 -4 14 C-4 12.35 -4 10.7 -4 9 C-3.01 8.67 -2.02 8.34 -1 8 C-0.67 5.36 -0.34 2.72 0 0 Z " fill="#5F7A9D" transform="translate(492,445)"/>
<path d="M0 0 C5.23175837 -0.38281159 8.37802694 0.78145293 13 3 C13 3.66 13 4.32 13 5 C11.39402675 4.54803755 9.79027492 4.08817673 8.1875 3.625 C6.84751953 3.24214844 6.84751953 3.24214844 5.48046875 2.8515625 C3 2 3 2 0 0 Z " fill="#7188A4" transform="translate(288,158)"/>
<path d="M0 0 C-2.96921058 1.64956143 -5.60527583 2.66052758 -9 3 C-11.3125 2.0625 -11.3125 2.0625 -13 1 C-4.57142857 -1.42857143 -4.57142857 -1.42857143 0 0 Z " fill="#557797" transform="translate(312,346)"/>
<path d="M0 0 C1.94014063 0.22860572 3.87717414 0.48369181 5.8125 0.75 C7.43091797 0.95882813 7.43091797 0.95882813 9.08203125 1.171875 C12.42407102 2.12035215 13.29042423 3.04873235 15 6 C4.44191344 2.92482916 4.44191344 2.92482916 0 1 C0 0.67 0 0.34 0 0 Z " fill="#8EA2B9" transform="translate(211,277)"/>
<path d="M0 0 C-4.77830905 2.91360308 -7.55106131 3.19876651 -13 2 C-13 1.67 -13 1.34 -13 1 C-11.58622218 0.63447197 -10.16879424 0.28304505 -8.75 -0.0625 C-7.96109375 -0.25972656 -7.1721875 -0.45695313 -6.359375 -0.66015625 C-3.89605178 -1.01497267 -2.34395868 -0.76877544 0 0 Z " fill="#3E5E87" transform="translate(130,187)"/>
<path d="M0 0 C7.42857143 -0.28571429 7.42857143 -0.28571429 11 2 C11 2.66 11 3.32 11 4 C9.53984709 3.71758359 8.08190207 3.42373386 6.625 3.125 C5.81289063 2.96257812 5.00078125 2.80015625 4.1640625 2.6328125 C2 2 2 2 0 0 Z " fill="#2D4A6E" transform="translate(321,169)"/>
<path d="M0 0 C0.99 0 1.98 0 3 0 C2.6875 2.375 2.6875 2.375 2 5 C1.01 5.66 0.02 6.32 -1 7 C-1 6.34 -1 5.68 -1 5 C-1.66 4.67 -2.32 4.34 -3 4 C-1.6875 2 -1.6875 2 0 0 Z " fill="#9EB1C9" transform="translate(474,471)"/>
<path d="M0 0 C5.05255964 0.63156995 9.29593201 2.13459373 14 4 C14 4.33 14 4.66 14 5 C11.1875 5.6875 11.1875 5.6875 8 6 C6.4375 4.6875 6.4375 4.6875 5 3 C2.40084462 1.80972016 2.40084462 1.80972016 0 1 C0 0.67 0 0.34 0 0 Z " fill="#91ACC5" transform="translate(193,252)"/>
<path d="M0 0 C1.14926266 0.95421808 2.29430541 1.91352045 3.4375 2.875 C4.07558594 3.40867187 4.71367187 3.94234375 5.37109375 4.4921875 C7 6 7 6 8 8 C3.25 7.125 3.25 7.125 1 6 C0.375 2.9375 0.375 2.9375 0 0 Z " fill="#567395" transform="translate(472,22)"/>
<path d="M0 0 C3.9492568 0.55105909 7.34920174 1.38935371 11 3 C7.91190305 4.76462683 6.76687864 5 3 5 C2.67 4.01 2.34 3.02 2 2 C1.34 1.34 0.68 0.68 0 0 Z " fill="#6882A6" transform="translate(227,264)"/>
<path d="M0 0 C9.17286652 0.35010941 9.17286652 0.35010941 12.625 3.0625 C13.07875 3.701875 13.5325 4.34125 14 5 C9.15311808 4.21824485 4.6233633 2.60155722 0 1 C0 0.67 0 0.34 0 0 Z " fill="#7A91AC" transform="translate(381,191)"/>
<path d="M0 0 C0.66 0 1.32 0 2 0 C3.09658936 3.28976808 2.79953138 4.71303767 2 8 C1.01 7.67 0.02 7.34 -1 7 C-0.67 4.69 -0.34 2.38 0 0 Z " fill="#446485" transform="translate(1,67)"/>
<path d="M0 0 C3.96 0 7.92 0 12 0 C12 0.66 12 1.32 12 2 C7.47907032 3.45606519 4.48351204 2.27032841 0 1 C0 0.67 0 0.34 0 0 Z " fill="#35507B" transform="translate(156,258)"/>
<path d="M0 0 C4.21912747 0.4794463 6.79663178 1.16625119 10 4 C7.36 4.33 4.72 4.66 2 5 C2 3.68 2 2.36 2 1 C1.34 0.67 0.68 0.34 0 0 Z " fill="#4E6C8D" transform="translate(141,234)"/>
<path d="M0 0 C-0.66 0 -1.32 0 -2 0 C-2.33 0.99 -2.66 1.98 -3 3 C-5.97 3 -8.94 3 -12 3 C-7.97869817 0.31913211 -4.73968522 -1.57989507 0 0 Z " fill="#8599B7" transform="translate(276,264)"/>
<path d="M0 0 C-0.33 0.66 -0.66 1.32 -1 2 C-3.28515625 2.4140625 -3.28515625 2.4140625 -6.0625 2.625 C-6.98160156 2.69976562 -7.90070313 2.77453125 -8.84765625 2.8515625 C-9.55792969 2.90054687 -10.26820313 2.94953125 -11 3 C-4.33333333 -1.44444444 -4.33333333 -1.44444444 0 0 Z " fill="#7D93AF" transform="translate(301,255)"/>
<path d="M0 0 C2 2 2 2 2 5 C-0.64 4.67 -3.28 4.34 -6 4 C-3.94766315 1.7522025 -2.99332739 0.9977758 0 0 Z " fill="#1A4375" transform="translate(294,154)"/>
<path d="M0 0 C0.66 1.32 1.32 2.64 2 4 C-1.22791555 6.1519437 -2.28400809 6.20086443 -6 6 C-4 4 -2 2 0 0 Z " fill="#506D93" transform="translate(34,16)"/>
<path d="M0 0 C3.99500618 1.3697164 6.80009492 3.25722422 10 6 C6.38238619 5.67112602 4.44334967 5.37334709 1.625 3 C0 1 0 1 0 0 Z " fill="#728AA5" transform="translate(455,10)"/>
<path d="M0 0 C-0.66 0.66 -1.32 1.32 -2 2 C-4.72869407 1.96712417 -7.2966618 1.43602229 -10 1 C-6.1496895 -1.56687367 -4.41430237 -0.83288724 0 0 Z " fill="#5E799A" transform="translate(70,497)"/>
<path d="M0 0 C0.66 0.33 1.32 0.66 2 1 C0.375 3 0.375 3 -2 5 C-5.25 5.25 -5.25 5.25 -8 5 C-5.45378681 2.99940392 -3.01962385 1.20784954 0 0 Z " fill="#748BA5" transform="translate(331,335)"/>
<path d="M0 0 C1.14926266 0.95421808 2.29430541 1.91352045 3.4375 2.875 C4.07558594 3.40867187 4.71367187 3.94234375 5.37109375 4.4921875 C7 6 7 6 8 8 C5.03 7.505 5.03 7.505 2 7 C2 6.01 2 5.02 2 4 C1.34 4 0.68 4 0 4 C0 2.68 0 1.36 0 0 Z " fill="#6285A6" transform="translate(154,325)"/>
<path d="M0 0 C1.32 0.33 2.64 0.66 4 1 C4 1.99 4 2.98 4 4 C3.01 4.33 2.02 4.66 1 5 C1 4.34 1 3.68 1 3 C-0.32 3.33 -1.64 3.66 -3 4 C-2.01 2.68 -1.02 1.36 0 0 Z " fill="#1B4076" transform="translate(94,218)"/>
<path d="M0 0 C0 0.66 0 1.32 0 2 C-1.96147874 3.38938077 -3.96166576 4.7260411 -6 6 C-6 4.35 -6 2.7 -6 1 C-3 0 -3 0 0 0 Z " fill="#536F92" transform="translate(90,200)"/>
<path d="M0 0 C-2.97 0.66 -5.94 1.32 -9 2 C-8.67 1.01 -8.34 0.02 -8 -1 C-4.40321889 -2.61235015 -3.79177789 -1.89588895 0 0 Z " fill="#557092" transform="translate(141,184)"/>
<path d="M0 0 C0.66 0 1.32 0 2 0 C2.66 1.65 3.32 3.3 4 5 C3.01 4.67 2.02 4.34 1 4 C0.67 4.66 0.34 5.32 0 6 C-0.66 5.01 -1.32 4.02 -2 3 C-1.34 2.01 -0.68 1.02 0 0 Z " fill="#3E648C" transform="translate(485,38)"/>
<path d="M0 0 C-0.33 0.99 -0.66 1.98 -1 3 C-3.31 3.33 -5.62 3.66 -8 4 C-4.5 0 -4.5 0 0 0 Z " fill="#3B5B82" transform="translate(44,12)"/>
<path d="M0 0 C1.5625 1.8125 1.5625 1.8125 3 4 C2.67 4.99 2.34 5.98 2 7 C0.35 5.02 -1.3 3.04 -3 1 C-2.01 0.67 -1.02 0.34 0 0 Z " fill="#567398" transform="translate(22,468)"/>
<path d="M0 0 C0.99 0 1.98 0 3 0 C3 0.66 3 1.32 3 2 C3.99 2.33 4.98 2.66 6 3 C5.34 4.32 4.68 5.64 4 7 C2.02 3.535 2.02 3.535 0 0 Z " fill="#57759B" transform="translate(14,462)"/>
<path d="M0 0 C0.66 0.33 1.32 0.66 2 1 C2 3.31 2 5.62 2 8 C0.68 6.35 -0.64 4.7 -2 3 C-1.34 2.01 -0.68 1.02 0 0 Z " fill="#4F6D97" transform="translate(12,454)"/>
<path d="M0 0 C-0.33 0.66 -0.66 1.32 -1 2 C-4.73487777 1.5020163 -6.81237635 1.12508244 -10 -1 C-6.18510326 -2.46726798 -3.70988378 -1.43336419 0 0 Z " fill="#7186A1" transform="translate(240,285)"/>
<path d="M0 0 C1.7143618 1.95927063 3.38405168 3.95880212 5 6 C3.35 5.67 1.7 5.34 0 5 C0 4.34 0 3.68 0 3 C-1.65 2.67 -3.3 2.34 -5 2 C-2 0 -2 0 0 0 Z " fill="#1F4374" transform="translate(214,273)"/>
<path d="M0 0 C0 0.66 0 1.32 0 2 C-3.47325181 3.1577506 -6.36067448 3.06866652 -10 3 C-6.26223701 0.50815801 -4.5227786 0 0 0 Z " fill="#69849C" transform="translate(311,251)"/>
<path d="M0 0 C3.3 0.33 6.6 0.66 10 1 C10.33 1.99 10.66 2.98 11 4 C7.37 3.01 3.74 2.02 0 1 C0 0.67 0 0.34 0 0 Z " fill="#627D9A" transform="translate(359,183)"/>
<path d="M0 0 C2.97 0.495 2.97 0.495 6 1 C4.68 2.32 3.36 3.64 2 5 C2 4.34 2 3.68 2 3 C1.01 3 0.02 3 -1 3 C-0.67 2.01 -0.34 1.02 0 0 Z " fill="#87A2C0" transform="translate(475,468)"/>
<path d="M0 0 C0.99 0.33 1.98 0.66 3 1 C2.34 1 1.68 1 1 1 C1.33 1.99 1.66 2.98 2 4 C1 5 1 5 -1.5625 5.0625 C-2.7690625 5.0315625 -2.7690625 5.0315625 -4 5 C-3.67 4.34 -3.34 3.68 -3 3 C-2.34 3 -1.68 3 -1 3 C-0.67 2.01 -0.34 1.02 0 0 Z " fill="#1D4070" transform="translate(333,335)"/>
<path d="M0 0 C4.455 0.99 4.455 0.99 9 2 C9 2.33 9 2.66 9 3 C6.03 3 3.06 3 0 3 C0 2.01 0 1.02 0 0 Z " fill="#557392" transform="translate(238,268)"/>
<path d="M0 0 C0 0.33 0 0.66 0 1 C-1.65 1 -3.3 1 -5 1 C-5 1.66 -5 2.32 -5 3 C-6.65 2.67 -8.3 2.34 -10 2 C-6.19832777 -0.53444815 -4.31588991 -1.33941411 0 0 Z " fill="#546D92" transform="translate(369,232)"/>
<path d="M0 0 C0.66 0.33 1.32 0.66 2 1 C1.67 1.99 1.34 2.98 1 4 C-1.64 4.33 -4.28 4.66 -7 5 C-6.01 4.34 -5.02 3.68 -4 3 C-2.66209359 2.00612666 -1.32781878 1.0073108 0 0 Z " fill="#5D7B9C" transform="translate(414,212)"/>
<path d="M0 0 C0 0.99 0 1.98 0 3 C-2.64 3 -5.28 3 -8 3 C-5.36657694 0.36657694 -3.69534435 0 0 0 Z " fill="#7690AB" transform="translate(61,3)"/>
</svg>
